<?xml version="1.0" encoding="utf-8"?>
<!-- Generator: Adobe Illustrator 16.0.0, SVG Export Plug-In . SVG Version: 6.00 Build 0)  -->
<!DOCTYPE svg PUBLIC "-//W3C//DTD SVG 1.1//EN" "http://www.w3.org/Graphics/SVG/1.1/DTD/svg11.dtd">
<svg version="1.1" id="Capa_1" xmlns="http://www.w3.org/2000/svg" xmlns:xlink="http://www.w3.org/1999/xlink" x="0px" y="0px"
	 width="45px" height="45px" viewBox="0 0 45 45" enable-background="new 0 0 45 45" xml:space="preserve">
<g>
	<path fill="#154ECC" d="M36.583,0H8.437C3.78,0,0,3.78,0,8.437v28.146c0,4.674,3.779,8.455,8.437,8.455h28.146
		c4.672,0,8.451-3.781,8.451-8.455V8.437C45.034,3.78,41.255,0,36.583,0L36.583,0z M28.337,22.51h-3.695v13.512h-5.06V22.51h-3.38
		v-4.646l3.38-0.014l-0.015-2.73c0-3.795,1.034-6.116,5.515-6.116h3.722v4.659h-2.338c-1.729,0-1.824,0.659-1.824,1.868v2.32h4.189
		L28.337,22.51z M28.337,22.51"/>
</g>
</svg>
