<?xml version="1.0" encoding="utf-8"?>
<!-- Generator: Adobe Illustrator 16.0.0, SVG Export Plug-In . SVG Version: 6.00 Build 0)  -->
<!DOCTYPE svg PUBLIC "-//W3C//DTD SVG 1.1//EN" "http://www.w3.org/Graphics/SVG/1.1/DTD/svg11.dtd">
<svg version="1.1" id="Capa_1" xmlns="http://www.w3.org/2000/svg" xmlns:xlink="http://www.w3.org/1999/xlink" x="0px" y="0px"
	 width="20px" height="20px" viewBox="0 0 20 20" enable-background="new 0 0 20 20" xml:space="preserve">
<g>
	<path fill="#AFADA3" d="M16.196,0H3.735C1.674,0,0,1.674,0,3.735v12.459c0,2.068,1.674,3.743,3.735,3.743h12.461
		c2.067,0,3.741-1.675,3.741-3.743V3.735C19.938,1.674,18.264,0,16.196,0L16.196,0z M12.545,9.965H10.91v5.981H8.669V9.965H7.173
		V7.907l1.496-0.005L8.663,6.693c0-1.681,0.458-2.708,2.441-2.708h1.647v2.062h-1.034c-0.766,0-0.808,0.292-0.808,0.827v1.027h1.855
		L12.545,9.965z M12.545,9.965"/>
</g>
</svg>
