<?xml version="1.0" encoding="utf-8"?>
<!-- Generator: Adobe Illustrator 16.0.0, SVG Export Plug-In . SVG Version: 6.00 Build 0)  -->
<!DOCTYPE svg PUBLIC "-//W3C//DTD SVG 1.1//EN" "http://www.w3.org/Graphics/SVG/1.1/DTD/svg11.dtd">
<svg version="1.1" id="Capa_1" xmlns="http://www.w3.org/2000/svg" xmlns:xlink="http://www.w3.org/1999/xlink" x="0px" y="0px"
	 width="20px" height="20px" viewBox="0 0 20 20" enable-background="new 0 0 20 20" xml:space="preserve">
<g>
	<path fill="#AFADA3" d="M17.265,0H2.654C1.162,0,0,1.164,0,2.655v14.607c0,1.49,1.162,2.654,2.654,2.654h14.611
		c1.491,0,2.653-1.164,2.653-2.654V2.655C19.918,1.164,18.756,0,17.265,0L17.265,0z M2.654,1.663h14.611
		c0.579,0,0.996,0.412,0.996,0.993v3.982h-4.218c-1.042-1.024-2.48-1.657-4.081-1.657c-1.606,0-3.041,0.633-4.086,1.657H1.661V2.655
		C1.661,2.074,2.074,1.663,2.654,1.663L2.654,1.663z M14.111,10.788c0,2.324-1.827,4.148-4.149,4.148
		c-2.327,0-4.151-1.824-4.151-4.148c0-2.321,1.824-4.151,4.151-4.151C12.284,6.637,14.111,8.467,14.111,10.788L14.111,10.788z
		 M15.612,9.465c0.016,0.046,0.025,0.091,0.039,0.136C15.643,9.556,15.628,9.511,15.612,9.465L15.612,9.465z M15.694,9.909
		c0.018,0.093,0.031,0.182,0.046,0.278C15.726,10.094,15.712,10.002,15.694,9.909L15.694,9.909z M4.181,10.187
		c0.009-0.096,0.026-0.185,0.042-0.278C4.207,10.002,4.19,10.094,4.181,10.187L4.181,10.187z M4.267,9.601
		c0.012-0.045,0.024-0.09,0.036-0.136C4.292,9.511,4.279,9.556,4.267,9.601L4.267,9.601z M14.111,5.56V2.74
		c0-0.167,0.08-0.252,0.249-0.252h2.819c0.166,0,0.25,0.086,0.25,0.252v2.82c0,0.167-0.084,0.251-0.25,0.251H14.36
		C14.191,5.812,14.111,5.727,14.111,5.56L14.111,5.56z M12.449,10.788c0,1.414-1.077,2.491-2.487,2.491
		c-1.416,0-2.494-1.077-2.494-2.491c0-0.248,0.083-0.495,0.083-0.747c0.25,0.414,0.667,0.747,1.161,0.747
		c0.665,0,1.25-0.581,1.25-1.245c0-0.498-0.334-0.997-0.751-1.163c0.252,0,0.498-0.081,0.751-0.081
		C11.372,8.299,12.449,9.376,12.449,10.788L12.449,10.788z M12.449,10.788"/>
</g>
</svg>
