<?xml version="1.0" encoding="utf-8"?>
<!-- Generator: Adobe Illustrator 16.0.0, SVG Export Plug-In . SVG Version: 6.00 Build 0)  -->
<!DOCTYPE svg PUBLIC "-//W3C//DTD SVG 1.1//EN" "http://www.w3.org/Graphics/SVG/1.1/DTD/svg11.dtd">
<svg version="1.1" id="Capa_1" xmlns="http://www.w3.org/2000/svg" xmlns:xlink="http://www.w3.org/1999/xlink" x="0px" y="0px"
	 width="45px" height="45px" viewBox="0 0 45 45" enable-background="new 0 0 45 45" xml:space="preserve">
<g>
	<path fill="#154ECC" d="M39.083,0H6.008C2.631,0,0,2.621,0,5.979v32.888c0,3.357,2.631,5.977,6.008,5.977h33.075
		c3.377,0,6.006-2.619,6.006-5.977V5.979C45.089,2.621,42.46,0,39.083,0L39.083,0z M6.008,3.744h33.075
		c1.312,0,2.255,0.928,2.255,2.235v8.966h-9.547c-2.36-2.307-5.615-3.729-9.239-3.729c-3.634,0-6.882,1.423-9.25,3.729H3.761V5.979
		C3.761,4.672,4.695,3.744,6.008,3.744L6.008,3.744z M31.944,24.289c0,5.234-4.138,9.341-9.393,9.341
		c-5.268,0-9.396-4.106-9.396-9.341c0-5.227,4.128-9.344,9.396-9.344C27.807,14.945,31.944,19.062,31.944,24.289L31.944,24.289z
		 M35.345,21.313c0.032,0.102,0.057,0.201,0.089,0.303C35.409,21.515,35.377,21.415,35.345,21.313L35.345,21.313z M35.53,22.311
		c0.04,0.21,0.072,0.41,0.104,0.628C35.603,22.728,35.57,22.521,35.53,22.311L35.53,22.311z M9.465,22.938
		c0.02-0.218,0.059-0.418,0.095-0.628C9.523,22.521,9.485,22.728,9.465,22.938L9.465,22.938z M9.66,21.617
		c0.026-0.102,0.057-0.202,0.081-0.303C9.716,21.415,9.686,21.515,9.66,21.617L9.66,21.617z M31.944,12.519V6.17
		c0-0.375,0.185-0.568,0.562-0.568h6.384c0.378,0,0.566,0.192,0.566,0.568v6.348c0,0.376-0.188,0.567-0.566,0.567h-6.384
		C32.129,13.086,31.944,12.895,31.944,12.519L31.944,12.519z M28.182,24.289c0,3.184-2.437,5.61-5.63,5.61
		c-3.206,0-5.644-2.427-5.644-5.61c0-0.558,0.189-1.112,0.189-1.679c0.565,0.93,1.509,1.679,2.627,1.679
		c1.505,0,2.828-1.305,2.828-2.8c0-1.124-0.756-2.247-1.701-2.621c0.571,0,1.129-0.182,1.701-0.182
		C25.745,18.687,28.182,21.113,28.182,24.289L28.182,24.289z M28.182,24.289"/>
</g>
</svg>
