<?xml version="1.0" encoding="utf-8"?>
<!-- Generator: Adobe Illustrator 16.0.0, SVG Export Plug-In . SVG Version: 6.00 Build 0)  -->
<!DOCTYPE svg PUBLIC "-//W3C//DTD SVG 1.1//EN" "http://www.w3.org/Graphics/SVG/1.1/DTD/svg11.dtd">
<svg version="1.1" id="Capa_1" xmlns="http://www.w3.org/2000/svg" xmlns:xlink="http://www.w3.org/1999/xlink" x="0px" y="0px"
	 width="45px" height="45px" viewBox="0 0 45 45" enable-background="new 0 0 45 45" xml:space="preserve">
<g>
	<path fill="#154ECC" d="M36.509,0H8.414C3.766,0,0,3.772,0,8.42v28.09c0,4.664,3.766,8.438,8.414,8.438h28.095
		c4.664,0,8.435-3.774,8.435-8.438V8.42C44.943,3.772,41.173,0,36.509,0L36.509,0z M33.656,17.436l0.012,0.709
		c0,7.312-5.565,15.746-15.746,15.746c-3.125,0-6.03-0.921-8.474-2.491c0.425,0.048,0.865,0.079,1.314,0.079
		c2.597,0,4.98-0.893,6.871-2.372c-2.424-0.04-4.455-1.646-5.165-3.842c0.336,0.068,0.681,0.099,1.042,0.099
		c0.504,0,0.997-0.072,1.45-0.196c-2.524-0.506-4.431-2.741-4.431-5.416V19.68c0.745,0.416,1.594,0.663,2.5,0.687
		c-1.482-0.983-2.452-2.688-2.452-4.593c0-1.016,0.268-1.974,0.75-2.785c2.716,3.345,6.799,5.542,11.399,5.776
		c-0.101-0.399-0.136-0.826-0.136-1.264c0-3.045,2.467-5.527,5.521-5.527c1.595,0,3.033,0.677,4.047,1.743
		c1.249-0.244,2.444-0.701,3.514-1.33c-0.413,1.292-1.29,2.372-2.44,3.057c1.123-0.134,2.195-0.438,3.182-0.877
		C35.672,15.678,34.727,16.65,33.656,17.436L33.656,17.436z M33.656,17.436"/>
</g>
</svg>
