<?xml version="1.0" encoding="utf-8"?>
<!-- Generator: Adobe Illustrator 16.0.0, SVG Export Plug-In . SVG Version: 6.00 Build 0)  -->
<!DOCTYPE svg PUBLIC "-//W3C//DTD SVG 1.1//EN" "http://www.w3.org/Graphics/SVG/1.1/DTD/svg11.dtd">
<svg version="1.1" id="Capa_1" xmlns="http://www.w3.org/2000/svg" xmlns:xlink="http://www.w3.org/1999/xlink" x="0px" y="0px"
	 width="20px" height="20px" viewBox="0 0 20 20" enable-background="new 0 0 20 20" xml:space="preserve">
<g>
	<path fill="#AFADA3" d="M16.171,0H3.726C1.668,0,0,1.671,0,3.729v12.439c0,2.065,1.668,3.737,3.726,3.737h12.445
		c2.064,0,3.735-1.672,3.735-3.737V3.729C19.906,1.671,18.235,0,16.171,0L16.171,0z M14.906,7.722l0.006,0.314
		c0,3.238-2.465,6.973-6.975,6.973c-1.384,0-2.671-0.407-3.753-1.104c0.188,0.022,0.383,0.036,0.582,0.036
		c1.15,0,2.205-0.396,3.043-1.051c-1.074-0.017-1.974-0.729-2.288-1.701c0.149,0.03,0.301,0.044,0.461,0.044
		c0.224,0,0.442-0.032,0.642-0.088c-1.117-0.224-1.962-1.213-1.962-2.397V8.715C4.994,8.899,5.37,9.008,5.771,9.019
		c-0.656-0.435-1.085-1.19-1.085-2.034c0-0.451,0.119-0.874,0.332-1.233c1.203,1.481,3.011,2.454,5.049,2.557
		c-0.045-0.176-0.061-0.365-0.061-0.56c0-1.348,1.093-2.447,2.446-2.447c0.705,0,1.343,0.3,1.792,0.772
		c0.554-0.108,1.082-0.311,1.556-0.589c-0.183,0.572-0.57,1.05-1.079,1.354c0.496-0.06,0.972-0.194,1.408-0.389
		C15.799,6.943,15.38,7.374,14.906,7.722L14.906,7.722z M14.906,7.722"/>
</g>
</svg>
